<?xml version="1.0"?>
<svg xmlns="http://www.w3.org/2000/svg" xmlns:xlink="http://www.w3.org/1999/xlink" xmlns:svgjs="http://svgjs.com/svgjs" version="1.1" width="512" height="512" x="0" y="0" viewBox="0 0 511.994 511.994" style="enable-background:new 0 0 512 512" xml:space="preserve" class=""><g><path xmlns="http://www.w3.org/2000/svg" d="m458.101 419.899c-2.486 0-5.007-.619-7.329-1.922-7.224-4.056-9.792-13.199-5.737-20.423 24.18-43.071 36.96-92.024 36.96-141.566 0-49.537-12.778-98.485-36.953-141.553-4.055-7.224-1.486-16.368 5.738-20.422 7.223-4.056 16.368-1.485 20.422 5.738 26.686 47.543 40.793 101.569 40.793 156.238 0 54.675-14.108 108.706-40.8 156.252-2.753 4.9-7.847 7.658-13.094 7.658z" fill="#2e3192" data-original="#000000"/><path xmlns="http://www.w3.org/2000/svg" d="m403.893 377.176c-2.265 0-4.563-.515-6.725-1.602-7.402-3.72-10.386-12.737-6.665-20.139 15.617-31.069 23.536-64.528 23.536-99.448 0-34.914-7.917-68.369-23.53-99.435-3.72-7.402-.736-16.418 6.667-20.138 7.4-3.722 16.418-.736 20.138 6.667 17.733 35.284 26.725 73.271 26.725 112.907 0 39.642-8.994 77.634-26.732 112.922-2.635 5.24-7.924 8.266-13.414 8.266z" fill="#2e3192" data-original="#000000"/><path xmlns="http://www.w3.org/2000/svg" d="m348.992 333.903c-1.857 0-3.744-.347-5.573-1.08-7.69-3.081-11.427-11.813-8.346-19.503 7.306-18.236 11.01-37.525 11.01-57.333 0-19.802-3.703-39.087-11.004-57.32-3.08-7.69.658-16.422 8.348-19.501 7.69-3.081 16.421.658 19.501 8.348 8.729 21.796 13.155 44.834 13.155 68.474 0 23.646-4.428 46.689-13.161 68.489-2.349 5.861-7.98 9.426-13.93 9.426z" fill="#2e3192" data-original="#000000"/><path xmlns="http://www.w3.org/2000/svg" d="m133.359 163.267h-88.359c-24.813 0-45 20.187-45 45v95.46c0 24.813 20.187 45 45 45h85.328z" fill="#2e3192" data-original="#000000"/><path xmlns="http://www.w3.org/2000/svg" d="m295.974 59.859c-5.198-2.497-11.369-1.792-15.871 1.813l-116.606 93.378-3.257 199.286 119.863 95.987c2.713 2.172 6.031 3.292 9.379 3.292 2.207 0 4.426-.487 6.492-1.479 5.199-2.497 8.505-7.753 8.505-13.521v-365.235c0-5.768-3.306-11.024-8.505-13.521z" fill="#2e3192" data-original="#000000"/></g></svg>
