<?xml version="1.0"?>
<svg xmlns="http://www.w3.org/2000/svg" xmlns:xlink="http://www.w3.org/1999/xlink" xmlns:svgjs="http://svgjs.com/svgjs" version="1.1" width="512" height="512" x="0" y="0" viewBox="0 0 32 32" style="enable-background:new 0 0 512 512" xml:space="preserve" class=""><g><g xmlns="http://www.w3.org/2000/svg" id="Layer_33" data-name="Layer 33"><path d="m14 5v22a3 3 0 0 1 -3 3h-3a3 3 0 0 1 -3-3v-22a3 3 0 0 1 3-3h3a3 3 0 0 1 3 3zm10-3h-3a3 3 0 0 0 -3 3v22a3 3 0 0 0 3 3h3a3 3 0 0 0 3-3v-22a3 3 0 0 0 -3-3z" fill="#ffffff" data-original="#000000" class=""/></g></g></svg>
