<?xml version="1.0" encoding="utf-8"?>
<!-- Generator: Adobe Illustrator 25.4.1, SVG Export Plug-In . SVG Version: 6.00 Build 0)  -->
<svg version="1.1" id="Warstwa_1" xmlns="http://www.w3.org/2000/svg" xmlns:xlink="http://www.w3.org/1999/xlink" x="0px" y="0px"
	 viewBox="0 0 832.34 841.53" style="enable-background:new 0 0 832.34 841.53;" xml:space="preserve">
<style type="text/css">
	.st0{fill:#FFFFCC;}
	.st1{fill-rule:evenodd;clip-rule:evenodd;fill:#8C8C8C;}
	.st2{fill:#FFA912;}
	.st3{fill:#FFCA10;}
	.st4{fill-rule:evenodd;clip-rule:evenodd;fill:#2E3545;}
	.st5{fill-rule:evenodd;clip-rule:evenodd;fill:#FFCA10;}
	.st6{fill-rule:evenodd;clip-rule:evenodd;fill:#FEE79B;}
</style>
<g>
	<circle class="st0" cx="423.99" cy="411.67" r="196.82"/>
	<g>
		<path class="st1" d="M425.35,570.21h-5.41c-12.12,0-21.95-9.83-21.95-21.95v-9.88h49.3v9.88
			C447.3,560.38,437.47,570.21,425.35,570.21z"/>
		<g>
			<g>
				<path class="st2" d="M422.65,326.45c-4.33,0-8.56,0.39-12.69,1.09c40.83,1,73.63,34.39,73.63,75.46
					c0,21.08-8.64,40.14-22.57,53.84c-10.89,10.71-18.88,24.01-22.86,38.76l-5.49,20.29h14.3l5.77-21.33
					c3.99-14.75,11.97-28.05,22.86-38.76c13.93-13.7,22.57-32.76,22.57-53.84C498.16,360.25,464.35,326.45,422.65,326.45z"/>
				<path class="st3" d="M461.01,456.84c13.93-13.7,22.57-32.76,22.57-53.84c0-41.07-32.8-74.46-73.63-75.46
					c-35.68,6.08-62.95,37.31-62.82,74.69c0.07,20.71,8.48,39.45,22.04,53.05c10.56,10.59,18.28,23.66,22.19,38.09l6.09,22.52h35.2
					l5.49-20.29C442.13,480.86,450.12,467.55,461.01,456.84z"/>
			</g>
		</g>
		<path class="st4" d="M389.82,508.74h63.61c3.11,0,5.65,2.54,5.65,5.65v0c0,3.11-2.54,5.65-5.65,5.65h-63.61
			c-3.11,0-5.65-2.54-5.65-5.65v0C384.17,511.29,386.72,508.74,389.82,508.74z"/>
		<path class="st4" d="M390.84,528.64h63.61c3.11,0,5.65,2.54,5.65,5.65v0c0,3.11-2.54,5.65-5.65,5.65h-63.61
			c-3.11,0-5.65-2.54-5.65-5.65v0C385.2,531.18,387.74,528.64,390.84,528.64z"/>
		<g>
			<g>
				<path class="st5" d="M423.99,297.32c0,1.27-1.03,2.31-2.31,2.31s-2.31-1.03-2.31-2.31v-22.68c0-1.27,1.03-2.31,2.31-2.31
					s2.31,1.03,2.31,2.31V297.32z"/>
				<path class="st5" d="M510.81,349.49c-1.1,0.64-2.51,0.26-3.15-0.84c-0.64-1.1-0.26-2.51,0.84-3.15l19.64-11.34
					c1.1-0.64,2.51-0.26,3.15,0.84c0.64,1.1,0.26,2.51-0.84,3.15L510.81,349.49z"/>
				<path class="st5" d="M509.04,450.76c-1.1-0.64-1.48-2.05-0.84-3.15c0.64-1.1,2.05-1.48,3.15-0.84l19.64,11.34
					c1.1,0.64,1.48,2.05,0.84,3.15c-0.64,1.1-2.05,1.48-3.15,0.84L509.04,450.76z"/>
				<path class="st5" d="M474.39,311.78c-0.64,1.1-2.05,1.48-3.15,0.84c-1.1-0.64-1.48-2.05-0.84-3.15l11.34-19.64
					c0.64-1.1,2.05-1.48,3.15-0.84c1.1,0.64,1.48,2.05,0.84,3.15L474.39,311.78z"/>
				<path class="st5" d="M523.5,400.36c-1.27,0-2.31-1.03-2.31-2.31s1.03-2.31,2.31-2.31h22.68c1.27,0,2.31,1.03,2.31,2.31
					s-1.03,2.31-2.31,2.31H523.5z"/>
				<path class="st5" d="M450.14,301.23c-0.33,1.23-1.59,1.96-2.82,1.63c-1.23-0.33-1.96-1.59-1.63-2.82l2.93-10.95
					c0.33-1.23,1.59-1.96,2.82-1.63c1.23,0.33,1.96,1.59,1.63,2.82L450.14,301.23z"/>
				<path class="st5" d="M520.5,374.09c-1.23,0.33-2.49-0.4-2.82-1.63c-0.33-1.23,0.4-2.49,1.63-2.82l10.95-2.93
					c1.23-0.33,2.49,0.4,2.82,1.63c0.33,1.23-0.4,2.49-1.63,2.82L520.5,374.09z"/>
				<path class="st5" d="M492.58,471.45c-0.9-0.9-0.9-2.36,0-3.26c0.9-0.9,2.36-0.9,3.26,0l8.02,8.02c0.9,0.9,0.9,2.36,0,3.26
					c-0.9,0.9-2.36,0.9-3.26,0L492.58,471.45z"/>
				<path class="st5" d="M495.08,328.24c-0.9,0.9-2.36,0.9-3.26,0c-0.9-0.9-0.9-2.36,0-3.26l8.02-8.02c0.9-0.9,2.36-0.9,3.26,0
					s0.9,2.36,0,3.26L495.08,328.24z"/>
				<path class="st5" d="M519.59,426.51c-1.23-0.33-1.96-1.59-1.63-2.82c0.33-1.23,1.59-1.96,2.82-1.63l10.95,2.93
					c1.23,0.33,1.96,1.59,1.63,2.82c-0.33,1.23-1.59,1.96-2.82,1.63L519.59,426.51z"/>
			</g>
			<path class="st5" d="M332.56,349.49c1.1,0.64,2.51,0.26,3.15-0.84c0.64-1.1,0.26-2.51-0.84-3.15l-19.64-11.34
				c-1.1-0.64-2.51-0.26-3.15,0.84c-0.64,1.1-0.26,2.51,0.84,3.15L332.56,349.49z"/>
			<path class="st5" d="M334.33,450.76c1.1-0.64,1.48-2.05,0.84-3.15c-0.64-1.1-2.05-1.48-3.15-0.84l-19.64,11.34
				c-1.1,0.64-1.48,2.05-0.84,3.15c0.64,1.1,2.05,1.48,3.15,0.84L334.33,450.76z"/>
			<path class="st5" d="M368.98,311.78c0.64,1.1,2.05,1.48,3.15,0.84c1.1-0.64,1.48-2.05,0.84-3.15l-11.34-19.64
				c-0.64-1.1-2.05-1.48-3.15-0.84c-1.1,0.64-1.48,2.05-0.84,3.15L368.98,311.78z"/>
			<path class="st5" d="M319.88,400.36c1.27,0,2.31-1.03,2.31-2.31s-1.03-2.31-2.31-2.31H297.2c-1.27,0-2.31,1.03-2.31,2.31
				s1.03,2.31,2.31,2.31H319.88z"/>
			<path class="st5" d="M393.23,301.23c0.33,1.23,1.59,1.96,2.82,1.63c1.23-0.33,1.96-1.59,1.63-2.82l-2.93-10.95
				c-0.33-1.23-1.59-1.96-2.82-1.63c-1.23,0.33-1.96,1.59-1.63,2.82L393.23,301.23z"/>
			<path class="st5" d="M322.87,374.09c1.23,0.33,2.49-0.4,2.82-1.63c0.33-1.23-0.4-2.49-1.63-2.82l-10.95-2.93
				c-1.23-0.33-2.49,0.4-2.82,1.63c-0.33,1.23,0.4,2.49,1.63,2.82L322.87,374.09z"/>
			<path class="st5" d="M350.79,471.45c0.9-0.9,0.9-2.36,0-3.26c-0.9-0.9-2.36-0.9-3.26,0l-8.02,8.02c-0.9,0.9-0.9,2.36,0,3.26
				c0.9,0.9,2.36,0.9,3.26,0L350.79,471.45z"/>
			<path class="st5" d="M348.29,328.24c0.9,0.9,2.36,0.9,3.26,0c0.9-0.9,0.9-2.36,0-3.26l-8.02-8.02c-0.9-0.9-2.36-0.9-3.26,0
				c-0.9,0.9-0.9,2.36,0,3.26L348.29,328.24z"/>
			<path class="st5" d="M323.79,426.51c1.23-0.33,1.96-1.59,1.63-2.82c-0.33-1.23-1.59-1.96-2.82-1.63l-10.95,2.93
				c-1.23,0.33-1.96,1.59-1.63,2.82c0.33,1.23,1.59,1.96,2.82,1.63L323.79,426.51z"/>
		</g>
		
			<ellipse transform="matrix(0.4401 -0.8979 0.8979 0.4401 -130.0311 547.1877)" class="st6" cx="373.79" cy="377.87" rx="23.83" ry="12.6"/>
	</g>
</g>
</svg>
