<svg height="512pt" viewBox="0 0 512 512" width="512pt" xmlns="http://www.w3.org/2000/svg"><path d="m497 48.199219h-34.890625c-4.574219 0-8.878906-1.785157-12.117187-5.019531l-38.785157-38.785157c-2.8125-2.8125-6.628906-4.394531-10.605469-4.394531h-80.335937c-34.847656 0-63.199219 28.351562-63.199219 63.199219 0 2.71875.738282 5.386719 2.136719 7.71875l13.875 23.121093c-1.292969 47.148438-25.082031 90.839844-64.191406 117.503907l-35.78125 24.394531c-48.03125 32.75-76.707031 87.007812-76.707031 145.140625v36.65625h-49.265626c-25.796874 0-47.132812 20.84375-47.132812 47.132813 0 25.804687 20.851562 47.132812 47.132812 47.132812h401.667969c8.285157 0 15-6.714844 15-15v-32.132812c0-20.75-13.476562-38.40625-32.132812-44.6875v-95.566407c19.527343-32.394531 19.527343-72.699219 0-105.09375 0-15.632812 9.433593-24.953125 16.117187-28.964843l33.53125-20.117188c18.925782-11.359375 30.683594-32.125 30.683594-54.195312v-53.042969c0-8.285157-6.714844-15-15-15zm-467 416.667969c0-9.460938 7.65625-17.132813 17.132812-17.132813h49.265626v34.265625h-49.265626c-9.4375 0-17.132812-7.636719-17.132812-17.132812zm452-348.625c0 11.59375-6.175781 22.503906-16.121094 28.472656l-33.527344 20.113281c-34.105468 20.46875-30.683593 57.914063-30.683593 59.042969 0 2.960937.875 5.855468 2.519531 8.320312 16.148438 24.222656 16.148438 55.527344 0 79.75-1.644531 2.464844-2.519531 5.363282-2.519531 8.324219v112.46875c0 8.28125 6.714843 15 15 15 9.445312 0 17.132812 7.683594 17.132812 17.132813v17.132812h-66.402343v-145.667969c0-8.28125-6.714844-15-15-15-8.28125 0-15 6.71875-15 15v98.636719c-10.109376-8.046875-22.214844-13.695312-35.453126-16.03125-9.074218-52.042969-56.714843-65.46875-78.078124-65.46875-8.285157 0-14.992188 6.714844-14.992188 15 0 8.28125 6.722656 15 15.007812 15 26.761719 0 49.25 21.625 49.25 49.265625 0 8.285156 6.714844 15 15 15 21.9375 0 40.5625 14.414063 46.925782 34.265625h-208.660156v-100.921875c0-48.203125 23.78125-93.195313 63.605468-120.351563l35.78125-24.398437c35.835938-24.429687 60.972656-60.746094 71.628906-101.726563l9.992188 16.648438c2.566406 4.28125 7.101562 7.007812 12.085938 7.265625.261718.011719.519531.019531.777343.019531 4.703125 0 9.15625-2.214844 11.996094-6l48.203125-64.269531c4.96875-6.625 3.625-16.027344-3-21-6.628906-4.96875-16.03125-3.625-21 3l-34.816406 46.421875-34.371094-57.28125c.953125-8.320312 9.085938-29.40625 32.984375-29.40625h74.121094l34.398437 34.398438c8.90625 8.902343 20.742188 13.800781 33.324219 13.800781h19.890625zm0 0"/></svg>